<svg xmlns="http://www.w3.org/2000/svg" style="border: 0 !important; clip: rect(0 0 0 0) !important; height: 1px !important; margin: -1px !important; overflow: hidden !important; padding: 0 !important; position: absolute !important; width: 1px !important;" class="root-svg-symbols-element">
    <symbol id="card-file" viewBox="0 0 48 52">
      <title>&#x420;&#x435;&#x441;&#x443;&#x440;&#x441; 2</title><g id="&#x421;&#x43B;&#x43E;&#x439;_2" data-name="&#x421;&#x43B;&#x43E;&#x439; 2"><path class="cls-1" d="M47.94 33.65L41 14.82V9a1 1 0 0 0-1-1h-1V5a1 1 0 0 0-1-1h-1V1a1 1 0 0 0-1-1H12a1 1 0 0 0-1 1v3h-1a1 1 0 0 0-1 1v3H8a1 1 0 0 0-1 1v5.82L.06 33.65A1 1 0 0 0 0 34v14a4 4 0 0 0 4 4h40a4 4 0 0 0 4-4V34a1 1 0 0 0-.06-.35zM41 20.61l5 13.53A2 2 0 0 1 44 36h-3zM13 2h22v2H13zm-2 4h26v2H11zm-2 4h30v26H9zM7 20.61V36H4a2 2 0 0 1-2-1.86zM46 48a2 2 0 0 1-2 2H4a2 2 0 0 1-2-2V37.44A4 4 0 0 0 4 38h40a4 4 0 0 0 2-.56zm-15-8a1 1 0 0 0-1 1v1a2 2 0 0 1-2 2h-8a2 2 0 0 1-2-2v-1a1 1 0 0 0-2 0v1a4 4 0 0 0 4 4h8a4 4 0 0 0 4-4v-1a1 1 0 0 0-1-1zm4-18H13a1 1 0 0 0 0 2h22a1 1 0 0 0 0-2zm-22-4h10a1 1 0 0 0 0-2H13a1 1 0 0 0 0 2zm22 8H13a1 1 0 0 0 0 2h22a1 1 0 0 0 0-2zm-8 4H13a1 1 0 0 0 0 2h14a1 1 0 0 0 0-2z" id="Icons"/></g>
    </symbol>
    <symbol id="diamond" viewBox="0 0 56 48">
      <title>&#x420;&#x435;&#x441;&#x443;&#x440;&#x441; 1</title><g id="&#x421;&#x43B;&#x43E;&#x439;_2" data-name="&#x421;&#x43B;&#x43E;&#x439; 2"><path class="cls-1" d="M55.87 14.5l-8-14A1 1 0 0 0 47 0H9a1 1 0 0 0-.84.5l-8 14a1 1 0 0 0 .11 1.14l27 32a1 1 0 0 0 1.53 0l27-32a1 1 0 0 0 .07-1.14zm-2.59-.5H39.83L47 2.93zM28 2.72L36.06 14H19.94zm-10 10.5L10.83 2h15.23zM29.95 2h15.22L38 13.22zm6.68 14L28 42.74 19.37 16zM26 43.09L3.16 16h14.11zM38.73 16h14.12L30 43.09zM9.05 2.93L16.17 14H2.72z" id="Icons"/></g>
    </symbol>
    <symbol id="dollar" viewBox="0 0 56 56">
      <title>&#x420;&#x435;&#x441;&#x443;&#x440;&#x441; 2</title><g id="&#x421;&#x43B;&#x43E;&#x439;_2" data-name="&#x421;&#x43B;&#x43E;&#x439; 2"><path class="cls-1" d="M28 14a14 14 0 1 0 14 14 14 14 0 0 0-14-14zm0 26a12 12 0 1 1 12-12 12 12 0 0 1-12 12zm-1-17h5a1 1 0 1 0 0-2h-3v-2a1 1 0 0 0-2 0v2a4 4 0 1 0 0 8h2a2 2 0 0 1 0 4h-5a1 1 0 1 0 0 2h3v2a1 1 0 0 0 2 0v-2a4 4 0 1 0 0-8h-2a2 2 0 0 1 0-4zM15.29 39.29L10 44.59V43a1 1 0 0 0-2 0v4a1 1 0 0 0 1 1h4a1 1 0 1 0 0-2h-1.59l5.29-5.29a1 1 0 0 0-1.41-1.41zm40.63-11.67a1 1 0 0 0-.22-.33l-3-3a1 1 0 0 0-1.41 1.41l1.3 1.3H45a1 1 0 1 0 0 2h7.59l-1.29 1.29a1 1 0 1 0 1.41 1.41l3-3a1 1 0 0 0 .22-1.09zM40 17a1 1 0 0 0 .71-.29l5.29-5.3V13a1 1 0 0 0 2 0V9a1 1 0 0 0-1-1h-4a1 1 0 1 0 0 2h1.59l-5.29 5.29A1 1 0 0 0 40 17zM25.71 4.71L27 3.41V11a1 1 0 0 0 2 0V3.41l1.29 1.29a1 1 0 1 0 1.41-1.41l-3-3a1 1 0 0 0-1.42 0l-3 3a1 1 0 0 0 1.41 1.41zM30.3 51.3L29 52.59V45a1 1 0 1 0-2 0v7.59l-1.29-1.29a1 1 0 0 0-1.41 1.41l3 3a1 1 0 0 0 .33.22 1 1 0 0 0 .76 0 1 1 0 0 0 .33-.22l3-3a1 1 0 1 0-1.41-1.41zM3.41 29H11a1 1 0 1 0 0-2H3.41l1.29-1.29a1 1 0 0 0-1.41-1.41l-3 3a1 1 0 0 0 0 1.42l3 3a1 1 0 1 0 1.41-1.41zM9 14a1 1 0 0 0 1-1v-1.59l5.29 5.29a1 1 0 0 0 1.41-1.41L11.41 10H13a1 1 0 1 0 0-2H9a1 1 0 0 0-1 1v4a1 1 0 0 0 1 1zm38 28a1 1 0 0 0-1 1v1.59l-5.29-5.29a1 1 0 0 0-1.41 1.41L44.59 46H43a1 1 0 0 0 0 2h4a1 1 0 0 0 1-1v-4a1 1 0 0 0-1-1z" id="Icons"/></g>
    </symbol>
    <symbol id="earth-in-hand" viewBox="0 0 56 52">
      <title>&#x420;&#x435;&#x441;&#x443;&#x440;&#x441; 1</title><g id="&#x421;&#x43B;&#x43E;&#x439;_2" data-name="&#x421;&#x43B;&#x43E;&#x439; 2"><path class="cls-1" d="M25 44h-1v-6a8.3 8.3 0 0 0-2.41-5.83L14 24.59V22a4 4 0 0 0-4-4 4 4 0 0 0-4-4 4 4 0 0 0-4-4H1a1 1 0 0 0-1 1v18a1 1 0 0 0 .15.53L9.2 44H9a1 1 0 0 0-1 1v6a1 1 0 0 0 1 1h16a1 1 0 0 0 1-1v-6a1 1 0 0 0-1-1zM10 20a2 2 0 0 1 2 2v1a1 1 0 0 0-.71.29l-.88.88a4 4 0 0 0-.41.5zm-4-4a2 2 0 0 1 2 2v8.59l-2-2zM2 28.71V12a2 2 0 0 1 2 2v11a1 1 0 0 0 .29.71l9.5 9.5a1.75 1.75 0 0 0 2.41 0 1.71 1.71 0 0 0 0-2.41l-4.38-4.38a2 2 0 0 1 0-2.83l.17-.17 8.17 8.17A6.29 6.29 0 0 1 22 38v6H11.55zM24 50H10v-4h14zm31-40h-1a4 4 0 0 0-4 4 4 4 0 0 0-4 4 4 4 0 0 0-4 4v2.59l-7.59 7.59A8.3 8.3 0 0 0 32 38v6h-1a1 1 0 0 0-1 1v6a1 1 0 0 0 1 1h16a1 1 0 0 0 1-1v-6a1 1 0 0 0-1-1h-.2l9-14.47A1 1 0 0 0 56 29V11a1 1 0 0 0-1-1zm-7 8a2 2 0 0 1 2-2v8.59l-2 2zm-4 4a2 2 0 0 1 2-2v4.67a4 4 0 0 0-.41-.5l-.88-.88A1 1 0 0 0 44 23zm2 28H32v-4h14zm8-21.29L44.45 44H34v-6a6.28 6.28 0 0 1 1.83-4.41L44 25.41l.17.17a2 2 0 0 1 0 2.83l-4.38 4.38a1.71 1.71 0 0 0 0 2.41 1.75 1.75 0 0 0 2.41 0l9.5-9.5a1 1 0 0 0 .3-.7V14a2 2 0 0 1 2-2zM42 14a14 14 0 1 0-14 14 14 14 0 0 0 14-14zM23.37 2.93A13.7 13.7 0 0 0 20.82 8h-3.2a12.07 12.07 0 0 1 5.75-5.07zM16 14a11.92 11.92 0 0 1 .7-4h3.64a23.35 23.35 0 0 0 0 8H16.7a11.91 11.91 0 0 1-.7-4zm1.62 6h3.19a13.7 13.7 0 0 0 2.56 5.07A12.06 12.06 0 0 1 17.62 20zM27 25.32c-1.7-.58-3.18-2.58-4.08-5.32H27zM27 18h-4.6a20.35 20.35 0 0 1 0-8H27zm0-10h-4.08c.9-2.74 2.38-4.74 4.08-5.32zm13 6a11.91 11.91 0 0 1-.7 4h-3.65a23.32 23.32 0 0 0 0-8h3.65a11.92 11.92 0 0 1 .7 4zm-1.62-6h-3.2a13.71 13.71 0 0 0-2.56-5.07A12.07 12.07 0 0 1 38.38 8zM29 2.68c1.7.58 3.18 2.58 4.08 5.32H29zM29 10h4.6a20.38 20.38 0 0 1 0 8H29zm0 15.32V20h4.08c-.9 2.74-2.38 4.74-4.08 5.32zm3.63-.25A13.71 13.71 0 0 0 35.18 20h3.19a12.07 12.07 0 0 1-5.74 5.07z" id="Icons"/></g>
    </symbol>
    <symbol id="earth" viewBox="0 0 56 52">
      <title>&#x420;&#x435;&#x441;&#x443;&#x440;&#x441; 3</title><g id="&#x421;&#x43B;&#x43E;&#x439;_2" data-name="&#x421;&#x43B;&#x43E;&#x439; 2"><path class="cls-1" d="M18 32a8 8 0 1 0 8 8 8 8 0 0 0-8-8zm0 14a6 6 0 1 1 6-6 6 6 0 0 1-6 6zM35.68 0h-1.36a21 21 0 0 0-19.11 28H1a1 1 0 0 0-.71.29A1 1 0 0 0 0 29v22a1 1 0 0 0 .29.71A1 1 0 0 0 1 52h34a1 1 0 0 0 1-1v-9.05A21 21 0 0 0 35.68 0zM34 2.1V12h-7.78a22.74 22.74 0 0 1 1.88-4.66c1.65-2.99 3.74-4.82 5.9-5.24zM34 14v14h-8.27a34 34 0 0 1 0-14zM28.66 3.12a16.49 16.49 0 0 0-2.31 3.26 25.44 25.44 0 0 0-2.2 5.62h-5.87a19.07 19.07 0 0 1 10.38-8.88zM17.36 14h6.33a35.86 35.86 0 0 0 0 14h-6.33a18.67 18.67 0 0 1 0-14zM2 30h3.9A5 5 0 0 1 2 33.9zm0 20v-3.9A5 5 0 0 1 5.9 50zm32 0h-3.9a5 5 0 0 1 3.9-3.9zm0-9v3.07A7 7 0 0 0 28.08 50H7.92A7 7 0 0 0 2 44.08v-8.16A7 7 0 0 0 7.92 30h20.16A7 7 0 0 0 34 35.92zm0-7.09A5 5 0 0 1 30.1 30H34zM51.72 12h-5.87a25.44 25.44 0 0 0-2.19-5.62 16.45 16.45 0 0 0-2.31-3.26A19.06 19.06 0 0 1 51.72 12zM36 2.1c2.16.42 4.25 2.25 5.9 5.24A22.8 22.8 0 0 1 43.78 12H36zM36 14h8.27a34.16 34.16 0 0 1 0 14H36zm0 25.9V30h7.78a22.85 22.85 0 0 1-1.88 4.66c-1.65 2.99-3.74 4.82-5.9 5.24zm5.34-1a16.46 16.46 0 0 0 2.31-3.26 25.44 25.44 0 0 0 2.2-5.64h5.87a19.06 19.06 0 0 1-10.38 8.88zm5-10.88a36 36 0 0 0 0-14h6.33a18.74 18.74 0 0 1 0 14z" id="Icons"/></g>
    </symbol>
    <symbol id="handshake" viewBox="0 0 60 44">
      <title>&#x420;&#x435;&#x441;&#x443;&#x440;&#x441; 1</title><g id="&#x421;&#x43B;&#x43E;&#x439;_2" data-name="&#x421;&#x43B;&#x43E;&#x439; 2"><path class="cls-1" d="M59.71 15.29a1 1 0 0 0-1.41 0l-4.3 4.3L42.41 8l6.29-6.29A1 1 0 0 0 47.29.29l-7 7A1 1 0 0 0 40 8H20a1 1 0 0 0-.29-.71l-7-7A1 1 0 1 0 11.3 1.7L17.59 8 6 19.59l-4.29-4.3a1 1 0 1 0-1.42 1.42l5 5a1 1 0 0 0 1.41 0l1.3-1.3 4.09 4.09-2 2a3.83 3.83 0 0 0 0 5.41 3.79 3.79 0 0 0 2.1 1.06A3.81 3.81 0 0 0 15.83 38H16a3.8 3.8 0 0 0 6.14 3.21 3.81 3.81 0 0 0 6.38 1.69l1.34-1.34.14-.16 1.48 1.48a3.83 3.83 0 0 0 5.41 0 3.78 3.78 0 0 0 1-1.69A3.8 3.8 0 0 0 44 38h.19a3.81 3.81 0 0 0 3.61-5.06 3.81 3.81 0 0 0 2.1-6.47l-2-2 4.1-4.06 1.29 1.29a1 1 0 0 0 1.41 0l5-5a1 1 0 0 0 .01-1.41zM11.54 30.46a1.83 1.83 0 0 1 0-2.59l2.34-2.34a1.83 1.83 0 1 1 2.59 2.59l-2.34 2.34a1.87 1.87 0 0 1-2.59 0zm3 5a1.83 1.83 0 0 1 0-2.59l3.34-3.34a1.83 1.83 0 0 1 2.59 2.59l-3.34 3.34a1.87 1.87 0 0 1-2.59 0zm6.59 4a1.87 1.87 0 0 1-2.59 0 1.83 1.83 0 0 1 0-2.59l3.34-3.34a1.83 1.83 0 0 1 2.59 2.59zm7.34.66l-1.34 1.34a1.87 1.87 0 0 1-2.59 0 1.83 1.83 0 0 1 0-2.59l1.34-1.34a1.83 1.83 0 0 1 2.59 2.59zm20-12.24a1.83 1.83 0 1 1-2.59 2.59l-4.17-4.17a1 1 0 0 0-1.41 1.41l4.17 4.17 1 1a1.83 1.83 0 0 1-2.59 2.59l-5.17-5.17a1 1 0 0 0-1.41 1.41l5.17 5.17a1.83 1.83 0 1 1-2.59 2.59l-5.17-5.17a1 1 0 0 0-1.41 1.41l3.17 3.17a1.83 1.83 0 0 1 0 2.59 1.87 1.87 0 0 1-2.59 0l-1.95-1.95a3.75 3.75 0 0 0-4-4.46v-.23a3.75 3.75 0 0 0-4-3.77v-.23a3.75 3.75 0 0 0-4-3.77v-.23a3.81 3.81 0 0 0-1.12-2.71 3.93 3.93 0 0 0-4.16-.81L9.41 19l9-9h7.17l-5.79 5.79a4.54 4.54 0 0 0 6.41 6.41l3.34-3.34a7 7 0 0 1 9.9 0zm-2-4.79l-5.64-5.64a9 9 0 0 0-12.73 0l-3.34 3.34a2.54 2.54 0 0 1-3.59-3.59l7.24-7.2h13.18l9 9zM6 16a2 2 0 1 0-2-2 2 2 0 0 0 2 2zm48 0a2 2 0 1 0-2-2 2 2 0 0 0 2 2z" id="Icons"/></g>
    </symbol>
    <symbol id="in" viewBox="0 0 536 512">
      <title>&#x420;&#x435;&#x441;&#x443;&#x440;&#x441;-3</title><path d="M64.999 0C25.706 0 0 25.791 0 59.684c0 33.17 24.962 59.705 63.489 59.705h.765c40.059 0 64.978-26.535 64.978-59.705C128.466 25.792 104.291 0 64.998 0zm338.563 158.427c-61.024 0-88.26 33.573-103.505 57.069v-48.904H185.24c1.531 32.404 0 345.473 0 345.473h114.817v-193c0-10.355.786-20.625 3.806-28.002 8.313-20.667 27.195-41.993 58.94-41.993 41.568 0 58.174 31.681 58.174 78.118v184.814h114.817V313.9c.021-106.1-56.622-155.471-132.231-155.471zM6.825 166.549h114.838v345.473H6.825V166.549z"/><path d="M287.298 277.433v-1.127c-.234.382-.553.765-.744 1.127z"/>
    </symbol>
    <symbol id="juste" viewBox="0 0 56 52">
      <title>&#x420;&#x435;&#x441;&#x443;&#x440;&#x441; 1</title><g id="&#x421;&#x43B;&#x43E;&#x439;_2" data-name="&#x421;&#x43B;&#x43E;&#x439; 2"><path class="cls-1" d="M51 50H36v-3a1 1 0 0 0-1-1h-1v-2a4 4 0 0 0-4-4H10a4 4 0 0 0-4 4v2H5a1 1 0 0 0-1 1v3H1a1 1 0 1 0 0 2h50a1 1 0 1 0 0-2zM8 44a2 2 0 0 1 2-2h20a2 2 0 0 1 2 2v2H8zm-2 6v-2h28v2zm49.09-11.16L36 19.62 37.59 18a4 4 0 0 0 1.07-2 3 3 0 0 0 3.46-.55l1.17-1.17a3 3 0 0 0 0-4.24L34.12.88a3 3 0 0 0-4.24 0L28.71 2a3 3 0 0 0-.55 3.46 4 4 0 0 0-2 1.08L18.4 14.3a4 4 0 0 0-1.07 2 3 3 0 0 0-3.46.55L12.71 18a3 3 0 0 0 0 4.24l9.17 9.17a3 3 0 0 0 2.12.88 3 3 0 0 0 2.11-.88l1.17-1.17a3 3 0 0 0 .55-3.46 4 4 0 0 0 2-1.07l1.63-1.63 19.21 19.18a3.12 3.12 0 0 0 2.21.91 3.13 3.13 0 0 0 2.21-5.33zm-25-35.37l1.17-1.17a1 1 0 0 1 1.41 0l9.17 9.17a1 1 0 0 1 .29.71 1 1 0 0 1-.29.71L40.71 14a1 1 0 0 1-1.41 0l-9.18-9.12a1 1 0 0 1 0-1.41zm-4.21 25.41L24.71 30a1 1 0 0 1-1.41 0l-9.17-9.17a1 1 0 0 1 0-1.41l1.17-1.17a1 1 0 0 1 1.41 0L18.39 20l5.74 5.74 1.69 1.69a1 1 0 0 1 0 1.41zm2.53-4.54a2 2 0 0 1-2.82 0l-5.77-5.77a2 2 0 0 1 0-2.82L27.59 8a2 2 0 0 1 2.83 0l5.75 5.75a2 2 0 0 1 0 2.83zm25.26 17.5a1.13 1.13 0 0 1-.8.33 1.12 1.12 0 0 1-.8-.33l-19.2-19.12L34.55 21l19.12 19.25a1.13 1.13 0 0 1 0 1.59zm-36.92-6.22a1 1 0 0 0 .5-.13 1 1 0 0 0 .37-1.37l-1.5-2.6a1 1 0 1 0-1.73 1l1.5 2.6a1 1 0 0 0 .86.5zm-5.48.74l2.6 1.5a1 1 0 0 0 .5.13 1 1 0 0 0 .5-1.87l-2.6-1.5a1 1 0 1 0-1 1.73zM25.63 38a1 1 0 0 0 .5-.13l2.6-1.5a1 1 0 1 0-1-1.73l-2.6 1.5a1 1 0 0 0 .5 1.87z" id="Icons"/></g>
    </symbol>
    <symbol id="libra" viewBox="0 0 60 52">
      <title>&#x420;&#x435;&#x441;&#x443;&#x440;&#x441; 2</title><g id="&#x421;&#x43B;&#x43E;&#x439;_2" data-name="&#x421;&#x43B;&#x43E;&#x439; 2"><path class="cls-1" d="M59.93 36.64l-9.6-25A3 3 0 0 0 52 9a1 1 0 0 0-2 0 1 1 0 0 1-2 0 1 1 0 0 0-1-1H33.86A4 4 0 0 0 31 5.14V1a1 1 0 1 0-2 0v4.14A4 4 0 0 0 26.14 8H13a1 1 0 0 0-1 1 1 1 0 0 1-2 0 1 1 0 0 0-2 0 3 3 0 0 0 1.67 2.68l-9.6 25A1 1 0 0 0 0 37c0 2.14 1.43 3.92 3.41 5.1A15 15 0 0 0 11 44a15 15 0 0 0 7.58-1.9c2-1.19 3.41-3 3.42-5.1a1 1 0 0 0-.07-.36l-9.6-24.96a3 3 0 0 0 1.5-1.68h12.31A4 4 0 0 0 29 12.86V32h-1a3 3 0 0 0-1 5.8 11.53 11.53 0 0 1-4.38 8.2H21a5 5 0 0 0-5 5 1 1 0 0 0 1 1h26a1 1 0 0 0 1-1 5 5 0 0 0-5-5h-1.62A11.54 11.54 0 0 1 33 37.8a3 3 0 0 0-1-5.8h-1V12.86A4 4 0 0 0 33.86 10h12.31a3 3 0 0 0 1.49 1.69l-9.6 25A1 1 0 0 0 38 37c0 2.14 1.43 3.91 3.42 5.1A14.94 14.94 0 0 0 49 44a15 15 0 0 0 7.59-1.9c2-1.18 3.4-3 3.41-5.1a1 1 0 0 0-.07-.36zM11 13.78L19.54 36H2.46zm6.56 26.6A13 13 0 0 1 11 42a13 13 0 0 1-6.56-1.62A5.13 5.13 0 0 1 2.19 38h17.62a5.13 5.13 0 0 1-2.25 2.38zM41.83 50H18.17A3 3 0 0 1 21 48h18a3 3 0 0 1 2.83 2zM25.5 46a13.28 13.28 0 0 0 3.5-8h2a13.28 13.28 0 0 0 3.46 8zM33 35a1 1 0 0 1-1 1h-4a1 1 0 0 1 0-2h4a1 1 0 0 1 1 1zm-3-24a2 2 0 1 1 2-2 2 2 0 0 1-2 2zm27.54 25H40.46L49 13.78zm-2 4.39A13 13 0 0 1 49 42a13 13 0 0 1-6.56-1.61A5.16 5.16 0 0 1 40.19 38h17.62a5.14 5.14 0 0 1-2.26 2.38z" id="Icons"/></g>
    </symbol>
    <symbol id="notebook" viewBox="0 0 52 50">
      <title>&#x420;&#x435;&#x441;&#x443;&#x440;&#x441; 3</title><g id="&#x421;&#x43B;&#x43E;&#x439;_2" data-name="&#x421;&#x43B;&#x43E;&#x439; 2"><path class="cls-1" d="M29.71.29A1 1 0 0 0 29 0H3a3 3 0 0 0-3 3v44a3 3 0 0 0 3 3h34a3 3 0 0 0 3-3V11a1 1 0 0 0-.29-.71zM30 3.41L36.59 10H31a1 1 0 0 1-1-1zM38 47a1 1 0 0 1-1 1H3a1 1 0 0 1-1-1V3a1 1 0 0 1 1-1h25v7a3 3 0 0 0 3 3h7zM48.84 7.09A3 3 0 0 0 46 5h-1a3 3 0 0 0-3 3v30a1 1 0 0 0 .08.38l2.5 6a1 1 0 0 0 1.85 0l2.5-6A1 1 0 0 0 49 38V9.28A2 2 0 0 1 50 11v7a1 1 0 0 0 2 0v-7a4 4 0 0 0-3.16-3.91zM47 37.8l-1.5 3.6-1.5-3.6V21h3zM47 19h-3V8a1 1 0 0 1 1-1h1a1 1 0 0 1 1 1zm-32-5a1 1 0 1 0 0 2h16a1 1 0 1 0 0-2zm0 6h12a1 1 0 1 0 0-2H15a1 1 0 1 0 0 2zm16 4H15a1 1 0 1 0 0 2h16a1 1 0 1 0 0-2zm-16 6h12a1 1 0 0 0 0-2H15a1 1 0 0 0 0 2zm16 4H15a1 1 0 0 0 0 2h16a1 1 0 0 0 0-2zm-4 4H15a1 1 0 0 0 0 2h12a1 1 0 0 0 0-2zM10.29 14.29L7 17.59l-1.29-1.3A1 1 0 0 0 4.3 17.7l2 2a1 1 0 0 0 1.41 0l4-4a1 1 0 1 0-1.41-1.41zm0 10L7 27.59l-1.29-1.3A1 1 0 0 0 4.3 27.7l2 2a1 1 0 0 0 1.41 0l4-4a1 1 0 0 0-1.41-1.41zm0 10L7 37.59l-1.29-1.3A1 1 0 0 0 4.3 37.7l2 2a1 1 0 0 0 1.41 0l4-4a1 1 0 0 0-1.41-1.41z" id="Icons"/></g>
    </symbol>
    <symbol id="video" viewBox="0 0 46 32">
      <title>video</title><path fill="#fff" d="M18.044 21.9l12.294-6.369-12.294-6.413z"/><path opacity=".12" d="M18.044 9.118l10.78 7.199 1.512-.785z"/><path d="M45.042 6.903s-.445-3.135-1.808-4.516C41.503.576 39.565.567 38.675.461 32.308 0 22.758 0 22.758 0h-.021s-9.55 0-15.915.461c-.89.107-2.829.115-4.559 1.926C.899 3.762.455 6.903.455 6.903.186 9.089.022 11.644 0 14.233v3.484a69.62 69.62 0 0 0 .487 7.699l-.032-.327s.443 3.135 1.808 4.516c1.731 1.811 4.004 1.755 5.016 1.945 3.64.344 15.466.457 15.466.457s9.56-.014 15.927-.474c.888-.107 2.829-.115 4.559-1.926 1.364-1.375 1.808-4.516 1.808-4.516.268-2.188.432-4.744.453-7.334v-3.494a69.647 69.647 0 0 0-.484-7.686l.032.326zM18.044 21.9V9.118l12.294 6.413z"/>
    </symbol></svg>