<svg xmlns="http://www.w3.org/2000/svg" viewBox="0 0 56 48"><defs><style>.cls-1{fill:#fff}</style></defs><title>Ресурс 1</title><g id="Слой_2" data-name="Слой 2"><path class="cls-1" d="M55.87 14.5l-8-14A1 1 0 0 0 47 0H9a1 1 0 0 0-.84.5l-8 14a1 1 0 0 0 .11 1.14l27 32a1 1 0 0 0 1.53 0l27-32a1 1 0 0 0 .07-1.14zm-2.59-.5H39.83L47 2.93zM28 2.72L36.06 14H19.94zm-10 10.5L10.83 2h15.23zM29.95 2h15.22L38 13.22zm6.68 14L28 42.74 19.37 16zM26 43.09L3.16 16h14.11zM38.73 16h14.12L30 43.09zM9.05 2.93L16.17 14H2.72z" id="Icons"/></g></svg>