<svg xmlns="http://www.w3.org/2000/svg" viewBox="0 0 56 52"><defs><style>.cls-1{fill:#fff}</style></defs><title>Ресурс 3</title><g id="Слой_2" data-name="Слой 2"><path class="cls-1" d="M18 32a8 8 0 1 0 8 8 8 8 0 0 0-8-8zm0 14a6 6 0 1 1 6-6 6 6 0 0 1-6 6zM35.68 0h-1.36a21 21 0 0 0-19.11 28H1a1 1 0 0 0-.71.29A1 1 0 0 0 0 29v22a1 1 0 0 0 .29.71A1 1 0 0 0 1 52h34a1 1 0 0 0 1-1v-9.05A21 21 0 0 0 35.68 0zM34 2.1V12h-7.78a22.74 22.74 0 0 1 1.88-4.66c1.65-2.99 3.74-4.82 5.9-5.24zM34 14v14h-8.27a34 34 0 0 1 0-14zM28.66 3.12a16.49 16.49 0 0 0-2.31 3.26 25.44 25.44 0 0 0-2.2 5.62h-5.87a19.07 19.07 0 0 1 10.38-8.88zM17.36 14h6.33a35.86 35.86 0 0 0 0 14h-6.33a18.67 18.67 0 0 1 0-14zM2 30h3.9A5 5 0 0 1 2 33.9zm0 20v-3.9A5 5 0 0 1 5.9 50zm32 0h-3.9a5 5 0 0 1 3.9-3.9zm0-9v3.07A7 7 0 0 0 28.08 50H7.92A7 7 0 0 0 2 44.08v-8.16A7 7 0 0 0 7.92 30h20.16A7 7 0 0 0 34 35.92zm0-7.09A5 5 0 0 1 30.1 30H34zM51.72 12h-5.87a25.44 25.44 0 0 0-2.19-5.62 16.45 16.45 0 0 0-2.31-3.26A19.06 19.06 0 0 1 51.72 12zM36 2.1c2.16.42 4.25 2.25 5.9 5.24A22.8 22.8 0 0 1 43.78 12H36zM36 14h8.27a34.16 34.16 0 0 1 0 14H36zm0 25.9V30h7.78a22.85 22.85 0 0 1-1.88 4.66c-1.65 2.99-3.74 4.82-5.9 5.24zm5.34-1a16.46 16.46 0 0 0 2.31-3.26 25.44 25.44 0 0 0 2.2-5.64h5.87a19.06 19.06 0 0 1-10.38 8.88zm5-10.88a36 36 0 0 0 0-14h6.33a18.74 18.74 0 0 1 0 14z" id="Icons"/></g></svg>