<svg xmlns="http://www.w3.org/2000/svg" width="46" height="32" viewBox="0 0 46 32"><title>video</title><path fill="#fff" d="M18.044 21.9l12.294-6.369-12.294-6.413z"/><path opacity=".12" d="M18.044 9.118l10.78 7.199 1.512-.785z"/><path d="M45.042 6.903s-.445-3.135-1.808-4.516C41.503.576 39.565.567 38.675.461 32.308 0 22.758 0 22.758 0h-.021s-9.55 0-15.915.461c-.89.107-2.829.115-4.559 1.926C.899 3.762.455 6.903.455 6.903.186 9.089.022 11.644 0 14.233v3.484a69.62 69.62 0 0 0 .487 7.699l-.032-.327s.443 3.135 1.808 4.516c1.731 1.811 4.004 1.755 5.016 1.945 3.64.344 15.466.457 15.466.457s9.56-.014 15.927-.474c.888-.107 2.829-.115 4.559-1.926 1.364-1.375 1.808-4.516 1.808-4.516.268-2.188.432-4.744.453-7.334v-3.494a69.647 69.647 0 0 0-.484-7.686l.032.326zM18.044 21.9V9.118l12.294 6.413z"/></svg>