<svg xmlns="http://www.w3.org/2000/svg" width="71" height="32" viewBox="0 0 71 32"><title>logo_white</title><path fill="#fff" d="M33.418 10.089q-.487-1.454-2.315-1.454h-1.341q-3.359 0-3.359 3.318v11.614q0 3.282 3.359 3.282h1.341q1.828 0 2.315-1.454V32h3.377V8.641h-3.377zm0 12.724a1.451 1.451 0 0 1-.282 1.013l.003-.004a1.253 1.253 0 0 1-.955.296h.005-1.329a1.376 1.376 0 0 1-.902-.211l.005.003a1.214 1.214 0 0 1-.225-.885l-.001.006v-10.57a1.216 1.216 0 0 1 .228-.882l-.002.003a1.37 1.37 0 0 1 .902-.219l-.006-.001h1.306a1.269 1.269 0 0 1 .951.298l-.002-.001a1.452 1.452 0 0 1 .279 1.015l.001-.006zm13.621.006a1.445 1.445 0 0 1-.282 1.013l.003-.004a1.25 1.25 0 0 1-.955.296h.006-1.3a1.376 1.376 0 0 1-.902-.211l.005.003a1.18 1.18 0 0 1-.224-.885l-.001.006V8.639h-3.365v14.926q0 3.282 3.359 3.282h1.341q1.828 0 2.315-1.454v1.454h3.359V8.639h-3.359zM53.68 8.641h3.359v18.208H53.68V8.641zm12.575 7.875h-1.941a1.376 1.376 0 0 1-.902-.211l.005.003a1.21 1.21 0 0 1-.225-.885l-.001.006v-3.128a1.214 1.214 0 0 1 .228-.881l-.002.003a1.372 1.372 0 0 1 .903-.207l-.006-.001h.896a1.387 1.387 0 0 1 .901.211l-.006-.003a1.21 1.21 0 0 1 .225.885l.001-.006v.754h-1.84l3.359 2.528 1.68-1.264 1.685-1.264h-1.591v-1.092q0-3.317-3.507-3.317h-2.724q-3.472 0-3.472 3.317v3.846q0 3.288 3.472 3.282h1.887a1.387 1.387 0 0 1 .901.211l-.006-.003a1.214 1.214 0 0 1 .225.885l.001-.006V23.2a1.216 1.216 0 0 1-.228.882l.002-.003a1.366 1.366 0 0 1-.903.207l.006.001h-.896a1.376 1.376 0 0 1-.902-.211l.005.003a1.18 1.18 0 0 1-.224-.885l-.001.006v-.771h1.697l-3.359-2.528-1.662 1.258-1.68 1.264h1.739v1.145q0 3.282 3.472 3.282h2.76q3.472 0 3.472-3.282v-3.733q-.018-3.317-3.448-3.317zM0 24.558h3.359v.148H0v-.148zm0 .641h3.359v.059H0v-.059zm.006 1.4h3.335v.089H.006v-.089zm0-.344h3.335v.089H.006v-.089zm0-.742h3.359v.469H.006v-.469zM0 24.825h3.359v.243H0v-.243zm0-4.024h3.359v.398H0v-.398zm0-2.255h3.359v.249H0v-.249zm0 .754h3.359v.326H0V19.3zm0-.273h3.359v.142H0v-.142zm0 1.151h3.359v.326H0v-.326zm0-.356h3.359v.142H0v-.142zm0 1.679h3.359v.214H0v-.214zm0 2.024h3.359v.208H0v-.208zm0 .35h3.359v.226H0v-.226zm0-.706h3.359v.226H0v-.226zm0-1.228h3.359v.243H0v-.243zm0 .67h3.359v.166H0v-.166zm0-.308h3.359v.125H0v-.125zm0-4.214h3.359v.243H0v-.243zM56.979 6.718l1.264-1.68 1.27-1.68-1.27-1.68-1.264-1.68V1.85h-3.377v3.323h3.377v1.543zM23.668 21.157l-1.68-1.264-1.68 1.264-1.674 1.264h1.727v.659a1.292 1.292 0 0 1-.228.9l.003-.004a1.288 1.288 0 0 1-.903.225l.006.001h-1.715a1.295 1.295 0 0 1-.912-.228l.004.003a1.217 1.217 0 0 1-.213-.836v.005-4.356h7.335v-6.825q0-3.317-3.507-3.317h-3.614q-3.472 0-3.472 3.317v11.602q0 3.282 3.472 3.282h3.561q3.472 0 3.472-3.282v-1.145h1.703zm-7.264-8.783a1.23 1.23 0 0 1 .217-.865l-.003.004a1.288 1.288 0 0 1 .915-.237l-.006-.001h1.828a1.216 1.216 0 0 1 .882.228l-.003-.002a1.293 1.293 0 0 1 .207.866l.001-.006v3.953h-4.036z"/><path fill="#fff" d="M8.617 16.973q2.499-.41 2.499-3.246V6.415q0-3.282-3.472-3.282H0v14.742h3.359v-.825h1.828l3.507 9.442h3.62zm-.86-3.697a1.214 1.214 0 0 1-.228.881l.002-.003a1.366 1.366 0 0 1-.903.207l.006.001H3.358V5.858H6.64a1.376 1.376 0 0 1 .902.211l-.005-.003a1.18 1.18 0 0 1 .224.885l.001-.006z"/></svg>