<svg xmlns="http://www.w3.org/2000/svg" viewBox="0 0 60 44"><defs><style>.cls-1{fill:#fff}</style></defs><title>Ресурс 1</title><g id="Слой_2" data-name="Слой 2"><path class="cls-1" d="M59.71 15.29a1 1 0 0 0-1.41 0l-4.3 4.3L42.41 8l6.29-6.29A1 1 0 0 0 47.29.29l-7 7A1 1 0 0 0 40 8H20a1 1 0 0 0-.29-.71l-7-7A1 1 0 1 0 11.3 1.7L17.59 8 6 19.59l-4.29-4.3a1 1 0 1 0-1.42 1.42l5 5a1 1 0 0 0 1.41 0l1.3-1.3 4.09 4.09-2 2a3.83 3.83 0 0 0 0 5.41 3.79 3.79 0 0 0 2.1 1.06A3.81 3.81 0 0 0 15.83 38H16a3.8 3.8 0 0 0 6.14 3.21 3.81 3.81 0 0 0 6.38 1.69l1.34-1.34.14-.16 1.48 1.48a3.83 3.83 0 0 0 5.41 0 3.78 3.78 0 0 0 1-1.69A3.8 3.8 0 0 0 44 38h.19a3.81 3.81 0 0 0 3.61-5.06 3.81 3.81 0 0 0 2.1-6.47l-2-2 4.1-4.06 1.29 1.29a1 1 0 0 0 1.41 0l5-5a1 1 0 0 0 .01-1.41zM11.54 30.46a1.83 1.83 0 0 1 0-2.59l2.34-2.34a1.83 1.83 0 1 1 2.59 2.59l-2.34 2.34a1.87 1.87 0 0 1-2.59 0zm3 5a1.83 1.83 0 0 1 0-2.59l3.34-3.34a1.83 1.83 0 0 1 2.59 2.59l-3.34 3.34a1.87 1.87 0 0 1-2.59 0zm6.59 4a1.87 1.87 0 0 1-2.59 0 1.83 1.83 0 0 1 0-2.59l3.34-3.34a1.83 1.83 0 0 1 2.59 2.59zm7.34.66l-1.34 1.34a1.87 1.87 0 0 1-2.59 0 1.83 1.83 0 0 1 0-2.59l1.34-1.34a1.83 1.83 0 0 1 2.59 2.59zm20-12.24a1.83 1.83 0 1 1-2.59 2.59l-4.17-4.17a1 1 0 0 0-1.41 1.41l4.17 4.17 1 1a1.83 1.83 0 0 1-2.59 2.59l-5.17-5.17a1 1 0 0 0-1.41 1.41l5.17 5.17a1.83 1.83 0 1 1-2.59 2.59l-5.17-5.17a1 1 0 0 0-1.41 1.41l3.17 3.17a1.83 1.83 0 0 1 0 2.59 1.87 1.87 0 0 1-2.59 0l-1.95-1.95a3.75 3.75 0 0 0-4-4.46v-.23a3.75 3.75 0 0 0-4-3.77v-.23a3.75 3.75 0 0 0-4-3.77v-.23a3.81 3.81 0 0 0-1.12-2.71 3.93 3.93 0 0 0-4.16-.81L9.41 19l9-9h7.17l-5.79 5.79a4.54 4.54 0 0 0 6.41 6.41l3.34-3.34a7 7 0 0 1 9.9 0zm-2-4.79l-5.64-5.64a9 9 0 0 0-12.73 0l-3.34 3.34a2.54 2.54 0 0 1-3.59-3.59l7.24-7.2h13.18l9 9zM6 16a2 2 0 1 0-2-2 2 2 0 0 0 2 2zm48 0a2 2 0 1 0-2-2 2 2 0 0 0 2 2z" id="Icons"/></g></svg>