<svg xmlns="http://www.w3.org/2000/svg" viewBox="0 0 56 52"><defs><style>.cls-1{fill:#fff}</style></defs><title>Ресурс 1</title><g id="Слой_2" data-name="Слой 2"><path class="cls-1" d="M51 50H36v-3a1 1 0 0 0-1-1h-1v-2a4 4 0 0 0-4-4H10a4 4 0 0 0-4 4v2H5a1 1 0 0 0-1 1v3H1a1 1 0 1 0 0 2h50a1 1 0 1 0 0-2zM8 44a2 2 0 0 1 2-2h20a2 2 0 0 1 2 2v2H8zm-2 6v-2h28v2zm49.09-11.16L36 19.62 37.59 18a4 4 0 0 0 1.07-2 3 3 0 0 0 3.46-.55l1.17-1.17a3 3 0 0 0 0-4.24L34.12.88a3 3 0 0 0-4.24 0L28.71 2a3 3 0 0 0-.55 3.46 4 4 0 0 0-2 1.08L18.4 14.3a4 4 0 0 0-1.07 2 3 3 0 0 0-3.46.55L12.71 18a3 3 0 0 0 0 4.24l9.17 9.17a3 3 0 0 0 2.12.88 3 3 0 0 0 2.11-.88l1.17-1.17a3 3 0 0 0 .55-3.46 4 4 0 0 0 2-1.07l1.63-1.63 19.21 19.18a3.12 3.12 0 0 0 2.21.91 3.13 3.13 0 0 0 2.21-5.33zm-25-35.37l1.17-1.17a1 1 0 0 1 1.41 0l9.17 9.17a1 1 0 0 1 .29.71 1 1 0 0 1-.29.71L40.71 14a1 1 0 0 1-1.41 0l-9.18-9.12a1 1 0 0 1 0-1.41zm-4.21 25.41L24.71 30a1 1 0 0 1-1.41 0l-9.17-9.17a1 1 0 0 1 0-1.41l1.17-1.17a1 1 0 0 1 1.41 0L18.39 20l5.74 5.74 1.69 1.69a1 1 0 0 1 0 1.41zm2.53-4.54a2 2 0 0 1-2.82 0l-5.77-5.77a2 2 0 0 1 0-2.82L27.59 8a2 2 0 0 1 2.83 0l5.75 5.75a2 2 0 0 1 0 2.83zm25.26 17.5a1.13 1.13 0 0 1-.8.33 1.12 1.12 0 0 1-.8-.33l-19.2-19.12L34.55 21l19.12 19.25a1.13 1.13 0 0 1 0 1.59zm-36.92-6.22a1 1 0 0 0 .5-.13 1 1 0 0 0 .37-1.37l-1.5-2.6a1 1 0 1 0-1.73 1l1.5 2.6a1 1 0 0 0 .86.5zm-5.48.74l2.6 1.5a1 1 0 0 0 .5.13 1 1 0 0 0 .5-1.87l-2.6-1.5a1 1 0 1 0-1 1.73zM25.63 38a1 1 0 0 0 .5-.13l2.6-1.5a1 1 0 1 0-1-1.73l-2.6 1.5a1 1 0 0 0 .5 1.87z" id="Icons"/></g></svg>