<svg xmlns="http://www.w3.org/2000/svg" viewBox="0 0 48 52"><defs><style>.cls-1{fill:#fff}</style></defs><title>Ресурс 2</title><g id="Слой_2" data-name="Слой 2"><path class="cls-1" d="M47.94 33.65L41 14.82V9a1 1 0 0 0-1-1h-1V5a1 1 0 0 0-1-1h-1V1a1 1 0 0 0-1-1H12a1 1 0 0 0-1 1v3h-1a1 1 0 0 0-1 1v3H8a1 1 0 0 0-1 1v5.82L.06 33.65A1 1 0 0 0 0 34v14a4 4 0 0 0 4 4h40a4 4 0 0 0 4-4V34a1 1 0 0 0-.06-.35zM41 20.61l5 13.53A2 2 0 0 1 44 36h-3zM13 2h22v2H13zm-2 4h26v2H11zm-2 4h30v26H9zM7 20.61V36H4a2 2 0 0 1-2-1.86zM46 48a2 2 0 0 1-2 2H4a2 2 0 0 1-2-2V37.44A4 4 0 0 0 4 38h40a4 4 0 0 0 2-.56zm-15-8a1 1 0 0 0-1 1v1a2 2 0 0 1-2 2h-8a2 2 0 0 1-2-2v-1a1 1 0 0 0-2 0v1a4 4 0 0 0 4 4h8a4 4 0 0 0 4-4v-1a1 1 0 0 0-1-1zm4-18H13a1 1 0 0 0 0 2h22a1 1 0 0 0 0-2zm-22-4h10a1 1 0 0 0 0-2H13a1 1 0 0 0 0 2zm22 8H13a1 1 0 0 0 0 2h22a1 1 0 0 0 0-2zm-8 4H13a1 1 0 0 0 0 2h14a1 1 0 0 0 0-2z" id="Icons"/></g></svg>