<svg xmlns="http://www.w3.org/2000/svg" viewBox="0 0 56 56"><defs><style>.cls-1{fill:#fff}</style></defs><title>Ресурс 2</title><g id="Слой_2" data-name="Слой 2"><path class="cls-1" d="M28 14a14 14 0 1 0 14 14 14 14 0 0 0-14-14zm0 26a12 12 0 1 1 12-12 12 12 0 0 1-12 12zm-1-17h5a1 1 0 1 0 0-2h-3v-2a1 1 0 0 0-2 0v2a4 4 0 1 0 0 8h2a2 2 0 0 1 0 4h-5a1 1 0 1 0 0 2h3v2a1 1 0 0 0 2 0v-2a4 4 0 1 0 0-8h-2a2 2 0 0 1 0-4zM15.29 39.29L10 44.59V43a1 1 0 0 0-2 0v4a1 1 0 0 0 1 1h4a1 1 0 1 0 0-2h-1.59l5.29-5.29a1 1 0 0 0-1.41-1.41zm40.63-11.67a1 1 0 0 0-.22-.33l-3-3a1 1 0 0 0-1.41 1.41l1.3 1.3H45a1 1 0 1 0 0 2h7.59l-1.29 1.29a1 1 0 1 0 1.41 1.41l3-3a1 1 0 0 0 .22-1.09zM40 17a1 1 0 0 0 .71-.29l5.29-5.3V13a1 1 0 0 0 2 0V9a1 1 0 0 0-1-1h-4a1 1 0 1 0 0 2h1.59l-5.29 5.29A1 1 0 0 0 40 17zM25.71 4.71L27 3.41V11a1 1 0 0 0 2 0V3.41l1.29 1.29a1 1 0 1 0 1.41-1.41l-3-3a1 1 0 0 0-1.42 0l-3 3a1 1 0 0 0 1.41 1.41zM30.3 51.3L29 52.59V45a1 1 0 1 0-2 0v7.59l-1.29-1.29a1 1 0 0 0-1.41 1.41l3 3a1 1 0 0 0 .33.22 1 1 0 0 0 .76 0 1 1 0 0 0 .33-.22l3-3a1 1 0 1 0-1.41-1.41zM3.41 29H11a1 1 0 1 0 0-2H3.41l1.29-1.29a1 1 0 0 0-1.41-1.41l-3 3a1 1 0 0 0 0 1.42l3 3a1 1 0 1 0 1.41-1.41zM9 14a1 1 0 0 0 1-1v-1.59l5.29 5.29a1 1 0 0 0 1.41-1.41L11.41 10H13a1 1 0 1 0 0-2H9a1 1 0 0 0-1 1v4a1 1 0 0 0 1 1zm38 28a1 1 0 0 0-1 1v1.59l-5.29-5.29a1 1 0 0 0-1.41 1.41L44.59 46H43a1 1 0 0 0 0 2h4a1 1 0 0 0 1-1v-4a1 1 0 0 0-1-1z" id="Icons"/></g></svg>