<svg xmlns="http://www.w3.org/2000/svg" viewBox="0 0 56 52"><defs><style>.cls-1{fill:#fff}</style></defs><title>Ресурс 1</title><g id="Слой_2" data-name="Слой 2"><path class="cls-1" d="M25 44h-1v-6a8.3 8.3 0 0 0-2.41-5.83L14 24.59V22a4 4 0 0 0-4-4 4 4 0 0 0-4-4 4 4 0 0 0-4-4H1a1 1 0 0 0-1 1v18a1 1 0 0 0 .15.53L9.2 44H9a1 1 0 0 0-1 1v6a1 1 0 0 0 1 1h16a1 1 0 0 0 1-1v-6a1 1 0 0 0-1-1zM10 20a2 2 0 0 1 2 2v1a1 1 0 0 0-.71.29l-.88.88a4 4 0 0 0-.41.5zm-4-4a2 2 0 0 1 2 2v8.59l-2-2zM2 28.71V12a2 2 0 0 1 2 2v11a1 1 0 0 0 .29.71l9.5 9.5a1.75 1.75 0 0 0 2.41 0 1.71 1.71 0 0 0 0-2.41l-4.38-4.38a2 2 0 0 1 0-2.83l.17-.17 8.17 8.17A6.29 6.29 0 0 1 22 38v6H11.55zM24 50H10v-4h14zm31-40h-1a4 4 0 0 0-4 4 4 4 0 0 0-4 4 4 4 0 0 0-4 4v2.59l-7.59 7.59A8.3 8.3 0 0 0 32 38v6h-1a1 1 0 0 0-1 1v6a1 1 0 0 0 1 1h16a1 1 0 0 0 1-1v-6a1 1 0 0 0-1-1h-.2l9-14.47A1 1 0 0 0 56 29V11a1 1 0 0 0-1-1zm-7 8a2 2 0 0 1 2-2v8.59l-2 2zm-4 4a2 2 0 0 1 2-2v4.67a4 4 0 0 0-.41-.5l-.88-.88A1 1 0 0 0 44 23zm2 28H32v-4h14zm8-21.29L44.45 44H34v-6a6.28 6.28 0 0 1 1.83-4.41L44 25.41l.17.17a2 2 0 0 1 0 2.83l-4.38 4.38a1.71 1.71 0 0 0 0 2.41 1.75 1.75 0 0 0 2.41 0l9.5-9.5a1 1 0 0 0 .3-.7V14a2 2 0 0 1 2-2zM42 14a14 14 0 1 0-14 14 14 14 0 0 0 14-14zM23.37 2.93A13.7 13.7 0 0 0 20.82 8h-3.2a12.07 12.07 0 0 1 5.75-5.07zM16 14a11.92 11.92 0 0 1 .7-4h3.64a23.35 23.35 0 0 0 0 8H16.7a11.91 11.91 0 0 1-.7-4zm1.62 6h3.19a13.7 13.7 0 0 0 2.56 5.07A12.06 12.06 0 0 1 17.62 20zM27 25.32c-1.7-.58-3.18-2.58-4.08-5.32H27zM27 18h-4.6a20.35 20.35 0 0 1 0-8H27zm0-10h-4.08c.9-2.74 2.38-4.74 4.08-5.32zm13 6a11.91 11.91 0 0 1-.7 4h-3.65a23.32 23.32 0 0 0 0-8h3.65a11.92 11.92 0 0 1 .7 4zm-1.62-6h-3.2a13.71 13.71 0 0 0-2.56-5.07A12.07 12.07 0 0 1 38.38 8zM29 2.68c1.7.58 3.18 2.58 4.08 5.32H29zM29 10h4.6a20.38 20.38 0 0 1 0 8H29zm0 15.32V20h4.08c-.9 2.74-2.38 4.74-4.08 5.32zm3.63-.25A13.71 13.71 0 0 0 35.18 20h3.19a12.07 12.07 0 0 1-5.74 5.07z" id="Icons"/></g></svg>