<svg xmlns="http://www.w3.org/2000/svg" width="536" height="512" viewBox="0 0 536 512"><title>Ресурс-3</title><path d="M64.999 0C25.706 0 0 25.791 0 59.684c0 33.17 24.962 59.705 63.489 59.705h.765c40.059 0 64.978-26.535 64.978-59.705C128.466 25.792 104.291 0 64.998 0zm338.563 158.427c-61.024 0-88.26 33.573-103.505 57.069v-48.904H185.24c1.531 32.404 0 345.473 0 345.473h114.817v-193c0-10.355.786-20.625 3.806-28.002 8.313-20.667 27.195-41.993 58.94-41.993 41.568 0 58.174 31.681 58.174 78.118v184.814h114.817V313.9c.021-106.1-56.622-155.471-132.231-155.471zM6.825 166.549h114.838v345.473H6.825V166.549z"/><path d="M287.298 277.433v-1.127c-.234.382-.553.765-.744 1.127z"/></svg>