<svg xmlns="http://www.w3.org/2000/svg" viewBox="0 0 60 52"><defs><style>.cls-1{fill:#fff}</style></defs><title>Ресурс 2</title><g id="Слой_2" data-name="Слой 2"><path class="cls-1" d="M59.93 36.64l-9.6-25A3 3 0 0 0 52 9a1 1 0 0 0-2 0 1 1 0 0 1-2 0 1 1 0 0 0-1-1H33.86A4 4 0 0 0 31 5.14V1a1 1 0 1 0-2 0v4.14A4 4 0 0 0 26.14 8H13a1 1 0 0 0-1 1 1 1 0 0 1-2 0 1 1 0 0 0-2 0 3 3 0 0 0 1.67 2.68l-9.6 25A1 1 0 0 0 0 37c0 2.14 1.43 3.92 3.41 5.1A15 15 0 0 0 11 44a15 15 0 0 0 7.58-1.9c2-1.19 3.41-3 3.42-5.1a1 1 0 0 0-.07-.36l-9.6-24.96a3 3 0 0 0 1.5-1.68h12.31A4 4 0 0 0 29 12.86V32h-1a3 3 0 0 0-1 5.8 11.53 11.53 0 0 1-4.38 8.2H21a5 5 0 0 0-5 5 1 1 0 0 0 1 1h26a1 1 0 0 0 1-1 5 5 0 0 0-5-5h-1.62A11.54 11.54 0 0 1 33 37.8a3 3 0 0 0-1-5.8h-1V12.86A4 4 0 0 0 33.86 10h12.31a3 3 0 0 0 1.49 1.69l-9.6 25A1 1 0 0 0 38 37c0 2.14 1.43 3.91 3.42 5.1A14.94 14.94 0 0 0 49 44a15 15 0 0 0 7.59-1.9c2-1.18 3.4-3 3.41-5.1a1 1 0 0 0-.07-.36zM11 13.78L19.54 36H2.46zm6.56 26.6A13 13 0 0 1 11 42a13 13 0 0 1-6.56-1.62A5.13 5.13 0 0 1 2.19 38h17.62a5.13 5.13 0 0 1-2.25 2.38zM41.83 50H18.17A3 3 0 0 1 21 48h18a3 3 0 0 1 2.83 2zM25.5 46a13.28 13.28 0 0 0 3.5-8h2a13.28 13.28 0 0 0 3.46 8zM33 35a1 1 0 0 1-1 1h-4a1 1 0 0 1 0-2h4a1 1 0 0 1 1 1zm-3-24a2 2 0 1 1 2-2 2 2 0 0 1-2 2zm27.54 25H40.46L49 13.78zm-2 4.39A13 13 0 0 1 49 42a13 13 0 0 1-6.56-1.61A5.16 5.16 0 0 1 40.19 38h17.62a5.14 5.14 0 0 1-2.26 2.38z" id="Icons"/></g></svg>