<svg xmlns="http://www.w3.org/2000/svg" viewBox="0 0 52 50"><defs><style>.cls-1{fill:#fff}</style></defs><title>Ресурс 3</title><g id="Слой_2" data-name="Слой 2"><path class="cls-1" d="M29.71.29A1 1 0 0 0 29 0H3a3 3 0 0 0-3 3v44a3 3 0 0 0 3 3h34a3 3 0 0 0 3-3V11a1 1 0 0 0-.29-.71zM30 3.41L36.59 10H31a1 1 0 0 1-1-1zM38 47a1 1 0 0 1-1 1H3a1 1 0 0 1-1-1V3a1 1 0 0 1 1-1h25v7a3 3 0 0 0 3 3h7zM48.84 7.09A3 3 0 0 0 46 5h-1a3 3 0 0 0-3 3v30a1 1 0 0 0 .08.38l2.5 6a1 1 0 0 0 1.85 0l2.5-6A1 1 0 0 0 49 38V9.28A2 2 0 0 1 50 11v7a1 1 0 0 0 2 0v-7a4 4 0 0 0-3.16-3.91zM47 37.8l-1.5 3.6-1.5-3.6V21h3zM47 19h-3V8a1 1 0 0 1 1-1h1a1 1 0 0 1 1 1zm-32-5a1 1 0 1 0 0 2h16a1 1 0 1 0 0-2zm0 6h12a1 1 0 1 0 0-2H15a1 1 0 1 0 0 2zm16 4H15a1 1 0 1 0 0 2h16a1 1 0 1 0 0-2zm-16 6h12a1 1 0 0 0 0-2H15a1 1 0 0 0 0 2zm16 4H15a1 1 0 0 0 0 2h16a1 1 0 0 0 0-2zm-4 4H15a1 1 0 0 0 0 2h12a1 1 0 0 0 0-2zM10.29 14.29L7 17.59l-1.29-1.3A1 1 0 0 0 4.3 17.7l2 2a1 1 0 0 0 1.41 0l4-4a1 1 0 1 0-1.41-1.41zm0 10L7 27.59l-1.29-1.3A1 1 0 0 0 4.3 27.7l2 2a1 1 0 0 0 1.41 0l4-4a1 1 0 0 0-1.41-1.41zm0 10L7 37.59l-1.29-1.3A1 1 0 0 0 4.3 37.7l2 2a1 1 0 0 0 1.41 0l4-4a1 1 0 0 0-1.41-1.41z" id="Icons"/></g></svg>